<svg id="Group_23" data-name="Group 23" xmlns="http://www.w3.org/2000/svg" width="40" height="40" viewBox="0 0 40 40">
    <defs>
        <clipPath id="clip-path">
            <path id="Oval" d="M0 20a20 20 0 1 1 20 20A20 20 0 0 1 0 20z" style="fill:none"/>
        </clipPath>
        <clipPath id="clip-path-2">
            <path id="Rectangle_9320" data-name="Rectangle 9320" style="fill:#1982f0" d="M0 0h5.712v14.688H0z"/>
        </clipPath>
        <style>
            
        </style>
    </defs>
    <g id="Oval-2" data-name="Oval" transform="translate(4.001 4)">
        <circle id="Oval-3" data-name="Oval" cx="16" cy="16" r="16" style="fill:#fff"/>
        <circle id="Oval-4" data-name="Oval" cx="16" cy="16" r="16" style="fill:none"/>
    </g>
    <g id="Group_26641" data-name="Group 26641" transform="translate(17.144 12.656)">
        <g id="Group_26640" data-name="Group 26640" style="clip-path:url(#clip-path-2)">
            <path id="Path_12351" data-name="Path 12351" d="M4.448 1.191a1.224 1.224 0 0 1-2.448 0 1.224 1.224 0 0 1 2.448 0" transform="translate(1.264)" style="fill:#1982f0"/>
            <path id="Path_12352" data-name="Path 12352" d="M2.074 11.547 4.938 2.74H3.231L.316 4.628v.589L2.864 4.15 0 12.957h1.705l2.916-1.888v-.589z" transform="translate(0 1.731)" style="fill:#1982f0"/>
        </g>
    </g>
</svg>
