<svg xmlns="http://www.w3.org/2000/svg" width="21" height="21" viewBox="0 0 21 21">
    <defs>
        <clipPath id="8qbthqjtoa">
            <path data-name="Rectangle 10958" transform="translate(0 -.012)" style="fill:#d1d1d1" d="M0 0h21v21H0z"/>
        </clipPath>
    </defs>
    <g data-name="Group 32624">
        <g data-name="Group 32580" transform="translate(0 .012)" style="clip-path:url(#8qbthqjtoa)">
            <path data-name="Path 14434" d="M13.562 8.138a.656.656 0 1 1-.656-.638.648.648 0 0 1 .656.638" transform="translate(-1.537 -.941)" style="fill:#d1d1d1"/>
            <path data-name="Path 14435" d="M11.361 14.959 12.9 10.24h-.915l-1.562 1.012v.316L11.785 11l-1.535 4.72h.914l1.562-1.02v-.316z" transform="translate(-1.286 -1.285)" style="fill:#d1d1d1"/>
            <path data-name="Path 14436" d="M10.871 3a7.871 7.871 0 1 0 7.871 7.871A7.87 7.87 0 0 0 10.871 3" transform="translate(-.376 -.376)" style="fill:#e2e2e2"/>
        </g>
        <path data-name="Path 14442" d="M13.9 8.3a.825.825 0 1 1-.825-.8.814.814 0 0 1 .825.8" transform="translate(-1.475 -1.949)" style="fill:#67696b"/>
        <path data-name="Path 14443" d="m11.647 16.174 1.93-5.934h-1.15l-1.964 1.272v.4l1.716-.719-1.93 5.934H11.4l1.965-1.272v-.4z" transform="translate(-1.674 -1.674)" style="fill:#67696b"/>
    </g>
</svg>
